<?xml version="1.0" encoding="UTF-8"?>
<svg width="23px" height="23px" viewBox="0 0 23 23" version="1.1" xmlns="http://www.w3.org/2000/svg" xmlns:xlink="http://www.w3.org/1999/xlink">
    <!-- Generator: Sketch 42 (36781) - http://www.bohemiancoding.com/sketch -->
    <title>sticky-note</title>
    <desc>Created with Sketch.</desc>
    <defs></defs>
    <g id="Page-1" stroke="none" stroke-width="1" fill="none" fill-rule="evenodd">
        <g id="Full-Color" transform="translate(-301.000000, -301.000000)">
            <g id="sticky-note" transform="translate(301.000000, 301.000000)">
                <polygon id="Fill-72" fill="#FFCC00" points="22 13.4523 16.925 20.4523 4.002 22.5033 1 3.5113 19.953 0.5033"></polygon>
                <polygon id="Fill-150" fill="#FF9500" points="15.9692 14.4094 22.0002 13.4524 16.9252 20.4524"></polygon>
                <path d="M11.8926,13.3508 C11.9356,13.6228 11.7496,13.8788 11.4766,13.9228 C10.8226,14.0278 10.4116,13.6838 10.1386,13.4548 C9.8856,13.2458 9.7896,13.1788 9.5976,13.2088 C9.4066,13.2398 9.3336,13.3318 9.1586,13.6118 C8.9696,13.9118 8.6846,14.3658 8.0296,14.4698 C7.9466,14.4828 7.8686,14.4888 7.7926,14.4888 C7.2726,14.4888 6.9296,14.2018 6.6916,14.0018 C6.4386,13.7898 6.3416,13.7238 6.1506,13.7548 C5.8756,13.7888 5.6226,13.6118 5.5796,13.3388 C5.5366,13.0658 5.7226,12.8098 5.9956,12.7668 C6.6516,12.6668 7.0606,13.0078 7.3326,13.2358 C7.5856,13.4468 7.6866,13.5138 7.8726,13.4818 C8.0636,13.4518 8.1356,13.3588 8.3106,13.0798 C8.4996,12.7798 8.7846,12.3258 9.4406,12.2208 C10.0956,12.1178 10.5066,12.4598 10.7796,12.6878 C11.0326,12.8988 11.1316,12.9678 11.3206,12.9348 C11.5946,12.8958 11.8496,13.0788 11.8926,13.3508 L11.8926,13.3508 Z M16.0706,8.1488 C15.7526,7.9628 15.5456,7.8368 15.1156,7.9088 C14.6876,7.9758 14.5266,8.1578 14.2816,8.4318 C13.9946,8.7538 13.6376,9.1548 12.8576,9.2798 C12.0786,9.4008 11.6156,9.1308 11.2436,8.9138 C10.9256,8.7278 10.7146,8.6038 10.2896,8.6738 C9.8636,8.7418 9.7026,8.9228 9.4586,9.1978 C9.1716,9.5198 8.8156,9.9198 8.0366,10.0438 C7.9006,10.0658 7.7746,10.0758 7.6576,10.0758 C7.0986,10.0758 6.7296,9.8588 6.4216,9.6788 C6.1046,9.4938 5.8956,9.3738 5.4696,9.4388 C5.1986,9.4838 4.9406,9.2948 4.8976,9.0228 C4.8536,8.7498 5.0406,8.4938 5.3126,8.4508 C6.0976,8.3298 6.5556,8.5988 6.9266,8.8158 C7.2446,9.0018 7.4576,9.1258 7.8796,9.0558 C8.3056,8.9888 8.4666,8.8068 8.7106,8.5328 C8.9976,8.2098 9.3536,7.8098 10.1326,7.6858 C10.9126,7.5638 11.3756,7.8328 11.7476,8.0508 C12.0656,8.2358 12.2746,8.3588 12.7016,8.2908 C13.1286,8.2238 13.2896,8.0418 13.5356,7.7668 C13.8216,7.4448 14.1786,7.0438 14.9586,6.9198 C15.7376,6.7918 16.2026,7.0658 16.5746,7.2848 C16.8926,7.4708 17.1036,7.5958 17.5306,7.5248 C17.8046,7.4838 18.0596,7.6678 18.1026,7.9408 C18.1456,8.2128 17.9596,8.4688 17.6866,8.5128 C16.9066,8.6348 16.4436,8.3668 16.0706,8.1488 L16.0706,8.1488 Z M17.8066,18.3858 L17.2296,19.1798 L16.5406,14.8248 L20.8876,14.1348 L17.8066,18.3858 Z M1.5716,3.9258 L19.5376,1.0758 L21.4276,13.0368 L15.8916,13.9148 C15.6186,13.9588 15.4326,14.2148 15.4756,14.4878 L16.3526,20.0378 L4.4176,21.9308 L1.5716,3.9258 Z M20.4466,0.4248 C20.4266,0.2938 20.3546,0.1768 20.2466,0.0988 C20.1406,0.0208 20.0066,-0.0132 19.8746,0.0088 L0.9216,3.0168 C0.6486,3.0608 0.4626,3.3168 0.5066,3.5888 L3.5086,22.5808 C3.5286,22.7118 3.6006,22.8298 3.7076,22.9078 C3.7936,22.9698 3.8966,23.0028 4.0016,23.0028 C4.0276,23.0028 4.0546,23.0008 4.0806,22.9968 L17.0026,20.9468 C17.0386,20.9408 17.0676,20.9228 17.1006,20.9108 C17.1216,20.9018 17.1436,20.8978 17.1646,20.8868 C17.2276,20.8518 17.2866,20.8058 17.3296,20.7468 L22.4046,13.7468 C22.4566,13.6748 22.4796,13.5898 22.4886,13.5028 C22.4916,13.4818 22.4916,13.4618 22.4916,13.4398 C22.4906,13.4168 22.4966,13.3958 22.4936,13.3738 L20.4466,0.4248 Z" id="Fill-228" fill="#000000"></path>
                <path d="M16.5322,18.009 L3.6122,20.059 C3.4812,20.08 3.3632,20.152 3.2862,20.259 C3.2082,20.366 3.1762,20.5 3.1962,20.631 L3.5062,22.581 C3.5452,22.827 3.7582,23.003 3.9992,23.003 C4.0252,23.003 4.0522,23.001 4.0782,22.997 L16.9982,20.947 C17.1292,20.926 17.2472,20.855 17.3242,20.747 C17.4022,20.64 17.4342,20.506 17.4142,20.375 L17.1042,18.425 C17.0612,18.152 16.7962,17.966 16.5322,18.009" id="Fill-362" fill="#000000" opacity="0.119999997"></path>
            </g>
        </g>
    </g>
</svg>